<svg class="svg-icon" style="width: 1em; height: 1em;vertical-align: middle;fill: currentColor;overflow: hidden;" viewBox="0 0 1024 1024" version="1.1" xmlns="http://www.w3.org/2000/svg"><path d="M341.333333 426.666667h-128v-128H128v128H0v85.333333h128v128h85.333333v-128h128v-85.333333z m426.666667 42.666666c70.613333 0 127.573333-57.386667 127.573333-128s-56.96-128-127.573333-128c-13.653333 0-26.666667 2.133333-39.04 6.186667 24.106667 34.56 38.613333 76.586667 38.613333 121.813333s-14.506667 87.253333-38.613333 121.813334c12.373333 4.053333 25.386667 6.186667 39.04 6.186666z m-213.333333 0c70.613333 0 127.573333-57.386667 127.573333-128s-56.96-128-127.573333-128c-70.613333 0-128 57.386667-128 128s57.386667 128 128 128z m282.453333 92.16C872.533333 592.426667 896 632.32 896 682.666667v85.333333h128v-85.333333c0-65.706667-101.333333-106.026667-186.88-121.173334zM554.666667 554.666667c-85.333333 0-256 42.666667-256 128v85.333333h512v-85.333333c0-85.333333-170.666667-128-256-128z"  /></svg>