<svg width="30" height="30" viewBox="0 0 30 30" fill="none" xmlns="http://www.w3.org/2000/svg">
<path d="M15 29.4C22.9529 29.4 29.4 22.9529 29.4 15C29.4 7.04708 22.9529 0.599976 15 0.599976C7.04708 0.599976 0.599976 7.04708 0.599976 15C0.599976 22.9529 7.04708 29.4 15 29.4Z" fill="#139BD0"/>
<path fill-rule="evenodd" clip-rule="evenodd" d="M15.4716 18.4413C14.917 18.9814 14.3672 19.5126 13.8226 20.048C13.6322 20.2355 13.4181 20.3392 13.1448 20.3248C12.9583 20.3149 12.854 20.2329 12.7967 20.056C12.3794 18.7609 11.956 17.4691 11.541 16.1728C11.5007 16.047 11.4412 15.9859 11.3138 15.9465C10.3308 15.6464 9.34965 15.3392 8.37013 15.0278C8.21941 14.9798 8.06741 14.9171 7.93717 14.8285C7.73589 14.6921 7.70645 14.4697 7.88693 14.3097C8.05365 14.1622 8.25269 14.0336 8.45941 13.9517C9.66101 13.4755 10.869 13.0147 12.0751 12.5497C15.1359 11.368 18.1967 10.1872 21.2578 9.00542C21.8399 8.78046 22.2872 9.09726 22.2268 9.7267C22.188 10.1293 22.0837 10.5254 21.9996 10.9229C21.3349 14.0611 20.6696 17.1997 20.0015 20.3373C19.8428 21.0822 19.3196 21.2768 18.7064 20.8246C17.6796 20.0678 16.6536 19.3085 15.6274 18.5504C15.5784 18.5149 15.5276 18.4806 15.4716 18.4413ZM13.1666 19.3942C13.1781 19.391 13.1896 19.3878 13.2012 19.3849C13.2076 19.3555 13.2168 19.3267 13.2194 19.2976C13.2853 18.5862 13.3551 17.8752 13.4124 17.1625C13.4252 17.0038 13.4796 16.8912 13.5989 16.7843C14.5455 15.9379 15.4863 15.0861 16.429 14.2361C17.4725 13.295 18.5164 12.3549 19.556 11.4099C19.6204 11.3517 19.6472 11.2525 19.6914 11.1718C19.5935 11.1613 19.4885 11.1219 19.3996 11.1449C19.2783 11.1763 19.1634 11.2467 19.0552 11.3149C16.7522 12.7654 14.4511 14.2185 12.1464 15.6662C12.0162 15.7481 11.9919 15.8176 12.0415 15.9606C12.2114 16.4486 12.366 16.9411 12.5263 17.4326C12.7397 18.0867 12.9532 18.7405 13.1666 19.3942Z" fill="white"/>
</svg>
