<svg width="28" height="30" viewBox="0 0 28 30" fill="none" xmlns="http://www.w3.org/2000/svg">
<path d="M24.5567 3.42446C23.8438 2.76765 20.9578 0.673338 14.5236 0.645338C14.5236 0.645338 6.93839 0.190588 3.24402 3.58178C1.18908 5.63659 0.464832 8.65165 0.386207 12.3853C0.307582 16.119 0.212144 23.1146 6.95521 25.0124H6.96077L6.95521 27.9095C6.95521 27.9095 6.91033 29.0829 7.68508 29.3187C8.61714 29.6107 9.16733 28.718 10.06 27.7579C10.5485 27.2302 11.2222 26.4553 11.7331 25.8657C16.3483 26.2532 19.8911 25.3661 20.2953 25.237C21.2274 24.9338 26.4994 24.26 27.3528 17.2643C28.2398 10.044 26.9261 5.48503 24.5567 3.42446Z" fill="#834995"/>
<path d="M25.3373 16.7366C24.6129 22.5755 20.3403 22.9462 19.5543 23.1989C19.2174 23.3055 16.1013 24.0804 12.188 23.8277C12.188 23.8277 9.26845 27.348 8.35888 28.2632C8.06132 28.5607 7.7357 28.5327 7.74132 27.9431C7.74132 27.5559 7.76376 23.1315 7.76376 23.1315C7.75813 23.1315 7.75813 23.1315 7.76376 23.1315C2.04813 21.5482 2.38501 15.5912 2.44676 12.4751C2.50851 9.35911 3.09807 6.80448 4.83857 5.08648C7.96588 2.25111 14.4058 2.67223 14.4058 2.67223C19.8462 2.69467 22.4514 4.33405 23.0578 4.8843C25.0621 6.60236 26.084 10.7122 25.3373 16.7366Z" fill="white"/>
<path d="M17.5329 12.2C17.5553 12.6828 16.8311 12.7166 16.8087 12.2336C16.7469 10.9985 16.1685 10.3978 14.9783 10.3304C14.4954 10.3023 14.5404 9.57802 15.0175 9.60614C16.5841 9.69033 17.4543 10.5886 17.5329 12.2Z" fill="#834995"/>
<path d="M18.6728 12.8343C18.7288 10.4538 17.2411 8.58975 14.4169 8.38207C13.9397 8.34838 13.9902 7.62407 14.4675 7.65776C17.724 7.89363 19.4588 10.1338 19.397 12.8512C19.3914 13.334 18.6615 13.3116 18.6728 12.8343Z" fill="#834995"/>
<path d="M21.3115 13.5868C21.3171 14.0697 20.5872 14.0752 20.5872 13.5924C20.5535 9.01661 17.5049 6.52374 13.8048 6.49567C13.3276 6.49005 13.3276 5.77142 13.8048 5.77142C17.9428 5.79949 21.2722 8.65724 21.3115 13.5868Z" fill="#834995"/>
<path d="M20.6771 19.0946V19.1059C20.0707 20.1727 18.9366 21.3518 17.7687 20.9756L17.7575 20.9587C16.5728 20.6275 13.7825 19.1902 12.0195 17.7865C11.1099 17.0678 10.2789 16.22 9.63888 15.4059C9.06063 14.6816 8.47676 13.8225 7.9097 12.7895C6.71382 10.6279 6.44995 9.66221 6.44995 9.66221C6.07376 8.4944 7.2472 7.36021 8.31951 6.7539H8.33082C8.84732 6.48433 9.34138 6.57421 9.67263 6.97277C9.67263 6.97277 10.3689 7.80365 10.6664 8.21365C10.9471 8.5954 11.3233 9.20734 11.5198 9.54984C11.8623 10.1618 11.6489 10.785 11.3121 11.0432L10.6383 11.5823C10.2959 11.8573 10.3408 12.3683 10.3408 12.3683C10.3408 12.3683 11.3401 16.1469 15.0738 17.1014C15.0738 17.1014 15.5848 17.1463 15.8598 16.8038L16.3989 16.1301C16.6571 15.7932 17.2804 15.5799 17.8923 15.9224C18.7177 16.3883 19.7676 17.1127 20.4638 17.7696C20.8567 18.0896 20.9466 18.5782 20.6771 19.0946Z" fill="#834995"/>
</svg>
